<svg width="48" height="48" viewBox="0 0 48 48" fill="none" xmlns="http://www.w3.org/2000/svg">
<path fill-rule="evenodd" clip-rule="evenodd" d="M24.6339 4C29.4939 4 30.2019 4.026 32.2499 4.12C34.3779 4.218 35.8319 4.556 37.1039 5.05C38.4389 5.55175 39.6484 6.33871 40.6479 7.356C41.6652 8.35555 42.4522 9.565 42.9539 10.9C43.4479 12.172 43.7859 13.626 43.8839 15.754C43.9799 17.888 44.0039 18.568 44.0039 24V24.16C44.0039 29.446 43.9799 30.134 43.8839 32.246C43.7859 34.374 43.4479 35.828 42.9539 37.1C42.4522 38.435 41.6652 39.6445 40.6479 40.644C39.6484 41.6613 38.4389 42.4483 37.1039 42.95C35.8319 43.444 34.3779 43.782 32.2499 43.88C30.1159 43.976 29.4359 44 24.0039 44H23.8439C18.5579 44 17.8699 43.976 15.7579 43.88C13.6299 43.782 12.1759 43.444 10.9039 42.95C9.56891 42.4483 8.35945 41.6613 7.35991 40.644C6.34262 39.6445 5.55565 38.435 5.05391 37.1C4.55991 35.828 4.22191 34.374 4.12391 32.246C4.02991 30.198 4.00391 29.488 4.00391 24.63V23.37C4.00391 18.51 4.02991 17.802 4.12391 15.754C4.22191 13.626 4.55991 12.172 5.05391 10.9C5.55565 9.565 6.34262 8.35555 7.35991 7.356C8.35945 6.33871 9.56891 5.55175 10.9039 5.05C12.1759 4.556 13.6299 4.218 15.7579 4.12C17.8059 4.026 18.5159 4 23.3739 4H24.6339ZM24.4719 7.604H23.5359C18.6239 7.604 17.9679 7.626 15.9219 7.72C13.9719 7.81 12.9139 8.134 12.2079 8.408C11.2739 8.772 10.6079 9.204 9.90791 9.904C9.20791 10.604 8.77591 11.27 8.41191 12.204C8.13791 12.91 7.81191 13.968 7.72391 15.918C7.62991 17.964 7.60791 18.62 7.60791 23.532V24.468C7.60791 29.38 7.62991 30.036 7.72391 32.082C7.81391 34.032 8.13791 35.09 8.41191 35.796C8.77591 36.728 9.20991 37.396 9.90791 38.096C10.6079 38.796 11.2739 39.228 12.2079 39.592C12.9139 39.866 13.9719 40.192 15.9219 40.28C18.0299 40.376 18.6619 40.396 24.0039 40.396H24.1639C29.3579 40.396 29.9979 40.376 32.0839 40.28C34.0359 40.19 35.0939 39.866 35.7999 39.592C36.7319 39.228 37.3999 38.796 38.0999 38.096C38.7999 37.396 39.2319 36.73 39.5959 35.796C39.8699 35.09 40.1959 34.032 40.2839 32.082C40.3799 29.972 40.3999 29.342 40.3999 24V23.84C40.3999 18.646 40.3799 18.006 40.2839 15.92C40.1939 13.968 39.8699 12.91 39.5959 12.204C39.2754 11.3351 38.7642 10.5492 38.0999 9.904C37.4547 9.23972 36.6687 8.72852 35.7999 8.408C35.0939 8.134 34.0359 7.808 32.0859 7.72C30.0399 7.626 29.3839 7.604 24.4719 7.604ZM24.0039 13.73C25.3526 13.73 26.6881 13.9956 27.9341 14.5118C29.1801 15.0279 30.3122 15.7844 31.2659 16.738C32.2196 17.6917 32.976 18.8238 33.4921 20.0698C34.0083 21.3159 34.2739 22.6513 34.2739 24C34.2739 25.3487 34.0083 26.6841 33.4921 27.9302C32.976 29.1762 32.2196 30.3083 31.2659 31.262C30.3122 32.2156 29.1801 32.9721 27.9341 33.4882C26.6881 34.0044 25.3526 34.27 24.0039 34.27C21.2801 34.27 18.6679 33.188 16.7419 31.262C14.8159 29.336 13.7339 26.7238 13.7339 24C13.7339 21.2762 14.8159 18.664 16.7419 16.738C18.6679 14.812 21.2801 13.73 24.0039 13.73ZM24.0039 17.334C22.236 17.334 20.5405 18.0363 19.2903 19.2864C18.0402 20.5365 17.3379 22.2321 17.3379 24C17.3379 25.7679 18.0402 27.4635 19.2903 28.7136C20.5405 29.9637 22.236 30.666 24.0039 30.666C25.7718 30.666 27.4674 29.9637 28.7175 28.7136C29.9676 27.4635 30.6699 25.7679 30.6699 24C30.6699 22.2321 29.9676 20.5365 28.7175 19.2864C27.4674 18.0363 25.7718 17.334 24.0039 17.334ZM34.6799 10.924C35.3164 10.924 35.9269 11.1769 36.377 11.6269C36.827 12.077 37.0799 12.6875 37.0799 13.324C37.0799 13.9605 36.827 14.571 36.377 15.0211C35.9269 15.4711 35.3164 15.724 34.6799 15.724C34.0434 15.724 33.4329 15.4711 32.9828 15.0211C32.5328 14.571 32.2799 13.9605 32.2799 13.324C32.2799 12.6875 32.5328 12.077 32.9828 11.6269C33.4329 11.1769 34.0434 10.924 34.6799 10.924Z" fill="black"/>
</svg>
