<svg width="48" height="48" viewBox="0 0 48 48" fill="none" xmlns="http://www.w3.org/2000/svg">
<path d="M42 19.5C41.6022 19.5 41.2206 19.658 40.9393 19.9393C40.658 20.2206 40.5 20.6022 40.5 21V33C40.5 33.3978 40.342 33.7794 40.0607 34.0607C39.7794 34.342 39.3978 34.5 39 34.5H9C8.60218 34.5 8.22064 34.342 7.93934 34.0607C7.65804 33.7794 7.5 33.3978 7.5 33V21C7.5 20.6022 7.34196 20.2206 7.06066 19.9393C6.77936 19.658 6.39782 19.5 6 19.5C5.60218 19.5 5.22064 19.658 4.93934 19.9393C4.65804 20.2206 4.5 20.6022 4.5 21V33C4.50105 34.1931 4.97585 35.3369 5.82 36.18C6.6631 37.0242 7.80693 37.4989 9 37.5H39C40.1931 37.4989 41.3369 37.0242 42.18 36.18C43.0242 35.3369 43.499 34.1931 43.5 33V21C43.5 20.6022 43.342 20.2206 43.0607 19.9393C42.7794 19.658 42.3978 19.5 42 19.5Z" fill="black"/>
<path d="M23.1009 28.2C23.3606 28.3947 23.6764 28.5 24.0009 28.5C24.3255 28.5 24.6413 28.3947 24.9009 28.2L42.6159 14.91C42.8923 14.7016 43.0881 14.404 43.1701 14.0678C43.2521 13.7315 43.2153 13.3772 43.0659 13.065C42.8426 12.6035 42.5434 12.1827 42.1809 11.82C41.3378 10.9758 40.194 10.5011 39.0009 10.5H9.00094C7.80787 10.5011 6.66405 10.9758 5.82094 11.82C5.45847 12.1827 5.15933 12.6035 4.93594 13.065C4.78657 13.3772 4.74977 13.7315 4.83178 14.0678C4.9138 14.404 5.10958 14.7016 5.38594 14.91L23.1009 28.2ZM9.00094 13.5H39.0009C39.1401 13.4781 39.2818 13.4781 39.4209 13.5L24.0009 25.125L8.58094 13.5C8.72008 13.4781 8.8618 13.4781 9.00094 13.5Z" fill="black"/>
</svg>
