<svg width="48" height="48" viewBox="0 0 48 48" fill="none" xmlns="http://www.w3.org/2000/svg">
<path d="M36.2885 40.6651C35.9775 40.6675 35.6735 40.5731 35.4185 40.3951L21.0035 30.2851C20.8252 30.1594 20.6764 29.9963 20.5676 29.8072C20.4588 29.6181 20.3925 29.4075 20.3735 29.1901C20.3533 28.9704 20.3818 28.749 20.457 28.5415C20.5322 28.3341 20.6522 28.1458 20.8085 27.9901L24.7385 24.0001L18.0035 28.2151L21.0035 35.1001L22.3235 33.7801C22.604 33.4977 22.9851 33.3382 23.3832 33.3368C23.7812 33.3354 24.1635 33.4922 24.446 33.7726C24.7285 34.0531 24.8879 34.4343 24.8893 34.8323C24.8907 35.2304 24.734 35.6127 24.4535 35.8951L21.4535 38.7751C21.2806 38.9498 21.0673 39.0794 20.8326 39.1523C20.5978 39.2252 20.3487 39.2394 20.1072 39.1934C19.8657 39.1475 19.6392 39.0429 19.4476 38.8889C19.256 38.7349 19.1052 38.5361 19.0085 38.3101L14.6735 28.2001C14.5347 27.8696 14.5189 27.5002 14.629 27.159C14.7391 26.8178 14.9677 26.5273 15.2735 26.3401L34.0535 14.7751C34.3667 14.5823 34.7398 14.5113 35.1019 14.5756C35.4641 14.6399 35.79 14.835 36.0177 15.1238C36.2454 15.4126 36.3591 15.775 36.3371 16.1421C36.3151 16.5093 36.159 16.8555 35.8985 17.1151L24.1685 28.8451L35.3285 36.6751L41.3285 11.1751L8.6735 23.3251L12.2885 24.8251C12.4826 24.8903 12.6613 24.9945 12.8135 25.1313C12.9658 25.2681 13.0885 25.4346 13.174 25.6206C13.2595 25.8066 13.3061 26.0082 13.3107 26.2129C13.3154 26.4175 13.2781 26.621 13.2012 26.8107C13.1243 27.0004 13.0094 27.1724 12.8635 27.316C12.7176 27.4596 12.5439 27.5719 12.353 27.6458C12.1621 27.7198 11.9581 27.7539 11.7535 27.746C11.5489 27.7382 11.3482 27.6885 11.1635 27.6001L3.9485 24.6751C3.6639 24.5672 3.41888 24.3752 3.24597 24.1247C3.07307 23.8742 2.98047 23.577 2.98047 23.2726C2.98047 22.9682 3.07307 22.6711 3.24597 22.4206C3.41888 22.1701 3.6639 21.9781 3.9485 21.8701L42.9785 7.50013C43.2311 7.40899 43.5036 7.38736 43.7675 7.4375C44.0313 7.48763 44.2769 7.60769 44.4785 7.78513C44.687 7.96777 44.8409 8.20463 44.923 8.46941C45.0051 8.7342 45.0122 9.01655 44.9435 9.28513L37.7435 39.5101C37.688 39.7504 37.5741 39.9733 37.4118 40.1591C37.2496 40.3448 37.0441 40.4877 36.8135 40.5751C36.6447 40.6342 36.4673 40.6646 36.2885 40.6651Z" fill="black"/>
</svg>
