<svg width="48" height="48" viewBox="0 0 48 48" fill="none" xmlns="http://www.w3.org/2000/svg">
<path fill-rule="evenodd" clip-rule="evenodd" d="M32.7979 27.8112C32.3202 27.5733 29.9714 26.4232 29.5335 26.2644C29.0956 26.1057 28.7772 26.0265 28.4586 26.5023C28.1402 26.9783 27.2246 28.0493 26.9459 28.3666C26.6673 28.6839 26.3886 28.7237 25.9109 28.4856C25.4331 28.2477 23.8938 27.7456 22.069 26.1257C20.6489 24.865 19.69 23.3081 19.4114 22.8321C19.1327 22.3561 19.3816 22.0988 19.6208 21.8617C19.8358 21.6487 20.0986 21.3064 20.3374 21.0287C20.5764 20.7512 20.6559 20.5528 20.8152 20.2356C20.9744 19.9182 20.8948 19.6406 20.7753 19.4027C20.6559 19.1647 19.7005 16.8244 19.3024 15.8723C18.9146 14.9453 18.5208 15.0709 18.2275 15.0562C17.9492 15.0424 17.6303 15.0395 17.3119 15.0395C16.9935 15.0395 16.4758 15.1585 16.0379 15.6344C15.6 16.1103 14.3659 17.2607 14.3659 19.6008C14.3659 21.9412 16.0777 24.2018 16.3166 24.5192C16.5555 24.8366 19.6853 29.6388 24.4778 31.6983C25.6175 32.1882 26.5074 32.4807 27.2012 32.6998C28.3456 33.0617 29.3871 33.0107 30.2103 32.8882C31.1281 32.7518 33.0367 31.7381 33.4349 30.6276C33.8329 29.5168 33.8329 28.5649 33.7135 28.3666C33.5941 28.1683 33.2757 28.0493 32.7979 27.8112ZM24.0811 39.6563H24.0747C21.223 39.6552 18.4262 38.8927 15.9863 37.4518L15.4059 37.109L9.39138 38.6792L10.9968 32.843L10.619 32.2446C9.02816 29.7266 8.18793 26.8163 8.18921 23.8279C8.19273 15.1079 15.3217 8.01363 24.0874 8.01363C28.332 8.01505 32.322 9.66231 35.3225 12.6518C38.3229 15.6411 39.9742 19.6147 39.9726 23.8406C39.969 32.5613 32.8401 39.6563 24.0811 39.6563ZM37.606 10.3802C33.9962 6.78354 29.1957 4.80189 24.0809 4.7998C13.5423 4.7998 4.96526 13.3353 4.96098 23.8267C4.95963 27.1805 5.83998 30.4538 7.51323 33.3396L4.80078 43.1998L14.9364 40.5538C17.7291 42.0697 20.8733 42.8688 24.0733 42.8698H24.0812C34.6186 42.8698 43.1964 34.3334 43.2008 23.8419C43.2027 18.7576 41.2158 13.9769 37.606 10.3802Z" fill="black"/>
</svg>
